<?xml version="1.0" encoding="UTF-8" standalone="no"?>
<!-- Created with Inkscape (http://www.inkscape.org/) -->

<svg
   width="20.293999mm"
   height="20.294176mm"
   viewBox="0 0 20.293999 20.294176"
   version="1.1"
   id="svg1"
   xml:space="preserve"
   xmlns="http://www.w3.org/2000/svg"
   xmlns:svg="http://www.w3.org/2000/svg"><defs
     id="defs1" /><g
     id="layer1"
     transform="translate(-135.58261,-84.891449)"><g
       id="g43"><rect
         style="fill:#ffffff;fill-opacity:0;stroke:none;stroke-width:0.4;stroke-linecap:round;stroke-dasharray:none;stroke-opacity:1"
         id="rect54"
         width="20.293999"
         height="20.294176"
         x="135.58261"
         y="84.891449"
         ry="0" /><path
         id="path24"
         style="fill:#b3b3b3;fill-opacity:1;stroke:#000000;stroke-width:0.4;stroke-opacity:1"
         d="m 144.90364,88.612622 c -0.23249,0 -0.38947,0.189356 -0.41986,0.419854 l -0.0836,0.634698 a 5.518968,5.518968 0 0 0 -1.52415,0.632673 l -0.5092,-0.39065 c -0.18447,-0.141498 -0.42922,-0.164398 -0.59363,0 l -1.16906,1.169058 c -0.16439,0.164398 -0.14151,0.409166 0,0.593637 l 0.39325,0.512674 a 5.518968,5.518968 0 0 0 -0.62631,1.519514 l -0.64395,0.08501 c -0.23051,0.03039 -0.41985,0.187358 -0.41985,0.419854 v 1.653102 c 0,0.232495 0.18934,0.389471 0.41985,0.41986 l 0.65031,0.08588 a 5.518968,5.518968 0 0 0 0.62805,1.507949 l -0.40135,0.523085 c -0.1415,0.184473 -0.16439,0.42923 0,0.593636 l 1.16877,1.169064 c 0.1644,0.16439 0.40945,0.1415 0.59392,0 l 0.52655,-0.403959 a 5.518968,5.518968 0 0 0 1.50333,0.621399 l 0.087,0.65957 c 0.0304,0.2305 0.18737,0.41956 0.41986,0.41956 h 1.6531 c 0.2325,0 0.38948,-0.18906 0.41986,-0.41956 l 0.087,-0.65957 a 5.518968,5.518968 0 0 0 1.50332,-0.621399 l 0.52684,0.403959 c 0.18448,0.14149 0.42924,0.16439 0.59364,0 l 1.16877,-1.169064 c 0.16439,-0.164399 0.14179,-0.409163 2.8e-4,-0.593636 l -0.40134,-0.523085 a 5.518968,5.518968 0 0 0 0.62776,-1.507949 5.518968,5.518968 0 0 0 0,-2.83e-4 l 0.6503,-0.08559 c 0.23051,-0.03041 0.41957,-0.187365 0.41957,-0.41986 v -1.653102 c 0,-0.232495 -0.18906,-0.389472 -0.41957,-0.419854 l -0.64394,-0.08501 a 5.518968,5.518968 0 0 0 -0.62603,-1.519514 l 0.39325,-0.512674 c 0.14151,-0.184474 0.16412,-0.429239 -2.8e-4,-0.593637 l -1.16906,-1.168769 c -0.1644,-0.164399 -0.40887,-0.141794 -0.59335,-2.89e-4 l -0.50949,0.39065 a 5.518968,5.518968 0 0 0 -1.52414,-0.632673 l -0.0836,-0.634698 c -0.0304,-0.230498 -0.18736,-0.419854 -0.41986,-0.419854 z m 0.8267,4.053678 a 2.3569846,2.3569846 0 0 1 2.35691,2.3572 2.3569846,2.3569846 0 0 1 -2.35691,2.356913 2.3569846,2.3569846 0 0 1 -2.3572,-2.356913 2.3569846,2.3569846 0 0 1 2.3572,-2.3572 z" /></g></g></svg>
